<svg id="Layer_1" data-name="Layer 1" xmlns="http://www.w3.org/2000/svg" viewBox="0 0 406.66 225.26"><defs><style>.cls-1{fill:#ddd7bc;}.cls-2{fill:#aaa797;}</style></defs><title>body</title><path class="cls-1" d="M368.25,11.44S46.11-10.09,29.11,11.91s-49,118-12,184,311-4,348,24,23.33-87.81,38.67-116.41S368.25,11.44,368.25,11.44Z"/><path class="cls-1" d="M126.59,53.36a1.5,1.5,0,0,0,0-3,1.5,1.5,0,0,0,0,3Z"/><path class="cls-2" d="M.6,119.38C-.2,137,1.75,154.44,5.32,171.67a59.6,59.6,0,0,0,31.79,41.24c6.45-23.46,7.65-49.07,10.78-73.2S56.54,91,70.57,71.12A54.14,54.14,0,0,1,83.26,57.84c6.95-4.89,15.33-7.32,23.66-9,24-4.78,48.82-3.78,73.23-6,16.77-1.5,33.38-4.51,50.13-6.19,22.72-2.28,45.6-2.09,68.44-1.9l51.56.42c3,0,6.14,0,8.92-1.14,7.63-3.21,11.42-14.92,11.91-23.17-10.14-.82-22.85-.19-33-1-6.61-.54-12.85-.73-19.47-1.15-23-1.46-46.53-3-69.53-4.85-51.13-4-101.79-5.84-154-1-16.08,1.48-32.94,1-49,3-16.57,2.08-20.63,6.6-29,27C6,60,1.93,90.4.6,119.38Z"/><path d="M38.76,7.23,74.1,4.08s20,25.83,5,36.83-22,22-23,26-20-5-17-19S38.76,7.23,38.76,7.23Z"/><path d="M130.11,98.91s47-44,63-20,2,52-31,49S115.11,120.91,130.11,98.91Z"/><path d="M268.4,7.23s1.71,25.68-12.29,38.68,6,31,23,21,26-32,33-20,25,2,16-18-9-22-9-22Z"/><path d="M194.74,221.5s5.37-71.48,29.37-65.2,22,47,36,26.65,31,30,31,30Z"/><path d="M17.11,195.91s22-37,37-30,5,31,17,30,21,17,21,23-39.43,2.67-42.21-1.17S24.11,210.91,17.11,195.91Z"/><path d="M297.11,118.91s9,23,27,33,26,8,28,15,23-13,8-24-35-9-37-20S295.11,99.91,297.11,118.91Z"/></svg>