<svg id="Layer_1" data-name="Layer 1" xmlns="http://www.w3.org/2000/svg" viewBox="0 0 59.87 62.05"><defs><style>.cls-1{fill:#eaa4ad;}.cls-2{fill:#ddd7bc;}.cls-3{fill:#aaa797;}</style></defs><title>head</title><path class="cls-1" d="M6.1,43.27s-7,2-6,9,3,8,3,8,48,4,53,0,6-15-3-17"/><path class="cls-2" d="M6.1,43.27l11-34.05S21,9,25.69,8.83c6.77-.24,15.25-.38,16.41.39,5,3.34,11,34.05,11,34.05H6.1Z"/><polygon class="cls-3" points="20.1 9.27 15.78 43.27 6.1 43.27 17.1 9.27 20.1 9.27"/><circle cx="38.6" cy="17.77" r="2.5"/><circle cx="51.1" cy="50.27" r="1"/><circle cx="24.6" cy="17.77" r="2.5"/><circle cx="11.1" cy="49.27" r="1"/><path d="M17.1,9.27s0-7,2-9S19.44,8,23.27,8.64,17.1,9.27,17.1,9.27Z"/><path d="M42.14,9.27s0-7-2-9S39.8,8,36,8.64,42.14,9.27,42.14,9.27Z"/><path d="M42.1,9.27s7-5,10-4,3,5,0,5-9.12-.2-9.12-.2"/><path d="M17.1,9.27s-3-5-6-6-3,0-5,0,0,0,1,2S13.1,10.27,17.1,9.27Z"/></svg>